<svg width="40" height="40" viewBox="0 0 40 40" fill="none" xmlns="http://www.w3.org/2000/svg">
<path d="M19.9997 0C14.5634 0 13.8859 0.02625 11.7584 0.11625C9.6222 0.22125 8.1772 0.5525 6.9022 1.0475C5.56777 1.55128 4.35928 2.34002 3.36095 3.35875C2.33938 4.35475 1.55019 5.56392 1.0497 6.9C0.554697 8.175 0.223447 9.62 0.118447 11.7562C0.0221973 13.885 0.00219727 14.5613 0.00219727 19.9975C0.00219727 25.4338 0.0284473 26.1112 0.118447 28.2388C0.223447 30.3687 0.554697 31.82 1.0497 33.095C1.55347 34.4294 2.34222 35.6379 3.36095 36.6362C4.35694 37.6578 5.56611 38.447 6.9022 38.9475C8.1772 39.4363 9.62845 39.7738 11.7584 39.8787C13.8872 39.975 14.5634 39.995 19.9997 39.995C25.4359 39.995 26.1134 39.9688 28.2409 39.8787C30.3709 39.7738 31.8222 39.435 33.0972 38.9475C34.4316 38.4437 35.6401 37.655 36.6384 36.6362C37.6613 35.6413 38.4507 34.4319 38.9497 33.095C39.4384 31.82 39.7759 30.3687 39.8809 28.2388C39.9772 26.11 39.9972 25.4338 39.9972 19.9975C39.9972 14.5613 39.9709 13.8837 39.8809 11.7562C39.7759 9.62625 39.4372 8.1675 38.9497 6.9C38.4459 5.56558 37.6572 4.35708 36.6384 3.35875C35.6435 2.33586 34.434 1.54647 33.0972 1.0475C31.8222 0.5525 30.3709 0.22125 28.2409 0.11625C26.1122 0.02 25.4359 0 19.9997 0ZM19.9997 3.6C25.3384 3.6 25.9759 3.62625 28.0859 3.71625C30.0322 3.8075 31.0922 4.1325 31.7959 4.4075C32.666 4.72865 33.4534 5.23981 34.1009 5.90375C34.7638 6.54853 35.273 7.33418 35.5909 8.2025C35.8659 8.90625 36.1909 9.96625 36.2822 11.9125C36.3722 14.0225 36.3984 14.6612 36.3984 19.9987C36.3984 25.3363 36.3722 25.975 36.2747 28.085C36.1697 30.0312 35.8447 31.0913 35.5709 31.795C35.1922 32.7337 34.7697 33.39 34.0722 34.1C33.4225 34.7598 32.6355 35.2685 31.7672 35.59C31.0722 35.865 29.9972 36.19 28.0434 36.2812C25.9222 36.3713 25.2972 36.3975 19.9447 36.3975C14.5922 36.3975 13.9684 36.3713 11.8447 36.2738C9.89845 36.1688 8.8247 35.8438 8.12095 35.57C7.17095 35.1912 6.5197 34.7687 5.8222 34.0713C5.11845 33.3675 4.67095 32.6975 4.32595 31.7663C4.04595 31.0713 3.72595 29.9963 3.6222 28.0425C3.55095 25.9463 3.5172 25.2963 3.5172 19.9688C3.5172 14.6438 3.55095 13.9925 3.6222 11.87C3.72595 9.91625 4.04595 8.84375 4.32595 8.14625C4.67095 7.195 5.1197 6.545 5.8222 5.84125C6.51845 5.145 7.17095 4.695 8.12095 4.3425C8.8247 4.06875 9.8722 3.74375 11.8259 3.64625C13.9472 3.57 14.5722 3.5425 19.9172 3.5425L19.9997 3.6ZM19.9997 9.73375C18.6514 9.73326 17.3162 9.99846 16.0704 10.5142C14.8246 11.03 13.6927 11.7862 12.7393 12.7396C11.7859 13.693 11.0297 14.8249 10.5139 16.0707C9.99816 17.3165 9.73295 18.6517 9.73345 20C9.73295 21.3483 9.99816 22.6835 10.5139 23.9293C11.0297 25.1751 11.7859 26.307 12.7393 27.2604C13.6927 28.2138 14.8246 28.97 16.0704 29.4858C17.3162 30.0015 18.6514 30.2667 19.9997 30.2662C21.348 30.2667 22.6832 30.0015 23.929 29.4858C25.1748 28.97 26.3067 28.2138 27.2601 27.2604C28.2135 26.307 28.9697 25.1751 29.4855 23.9293C30.0012 22.6835 30.2664 21.3483 30.2659 20C30.2664 18.6517 30.0012 17.3165 29.4855 16.0707C28.9697 14.8249 28.2135 13.693 27.2601 12.7396C26.3067 11.7862 25.1748 11.03 23.929 10.5142C22.6832 9.99846 21.348 9.73326 19.9997 9.73375ZM19.9997 26.6663C16.3147 26.6663 13.3334 23.685 13.3334 20C13.3334 16.315 16.3147 13.3337 19.9997 13.3337C23.6847 13.3337 26.6659 16.315 26.6659 20C26.6659 23.685 23.6847 26.6663 19.9997 26.6663ZM33.0797 9.32375C33.079 9.96083 32.8255 10.5716 32.3748 11.0218C31.924 11.4721 31.313 11.725 30.6759 11.725C30.3609 11.725 30.049 11.663 29.758 11.5424C29.467 11.4219 29.2025 11.2452 28.9798 11.0224C28.757 10.7997 28.5803 10.5352 28.4598 10.2442C28.3392 9.95318 28.2772 9.64126 28.2772 9.32625C28.2772 9.01124 28.3392 8.69932 28.4598 8.40829C28.5803 8.11726 28.757 7.85282 28.9798 7.63008C29.2025 7.40733 29.467 7.23064 29.758 7.11009C30.049 6.98955 30.3609 6.9275 30.6759 6.9275C31.9972 6.9275 33.0797 8.0025 33.0797 9.32375Z" fill="#FE8900"/>
</svg>
