<svg width="60" height="60" viewBox="0 0 60 60" fill="none" xmlns="http://www.w3.org/2000/svg">
<rect x="1.5" y="1.5" width="57" height="57" rx="8.5" stroke="#FE8900" stroke-width="3"/>
<g clip-path="url(#clip0)">
<path d="M11.7575 11H48.2429C49.2767 11 50.2163 11.4304 50.897 12.1237C51.5777 12.817 52.0003 13.7739 52.0003 14.8269V29.4588C52.0003 30.5118 51.5777 31.4688 50.897 32.162C50.2163 32.8553 49.2769 33.2856 48.2429 33.2856H11.7575C10.7236 33.2856 9.7841 32.8552 9.10343 32.162C8.42276 31.4688 8.00024 30.5118 8.00024 29.4588V14.8269C8.00024 13.7739 8.42285 12.817 9.10343 12.1237C9.7841 11.4304 10.7236 11 11.7575 11V11ZM48.2429 12.2756H11.7575C11.0693 12.2756 10.4432 12.5628 9.98888 13.0255C9.53468 13.4881 9.25267 14.1259 9.25267 14.8268V29.4587C9.25267 30.1596 9.53468 30.7974 9.98888 31.2601C10.4432 31.7227 11.0694 32.0099 11.7575 32.0099H48.2429C48.9311 32.0099 49.5572 31.7227 50.0114 31.2601C50.4657 30.7974 50.7477 30.1597 50.7477 29.4587V14.8268C50.7477 14.1259 50.4657 13.4881 50.0114 13.0255C49.5572 12.5628 48.9311 12.2756 48.2429 12.2756Z" fill="#FE8900"/>
<path d="M50.9356 24.1257H8.85083V25.982H50.9356V24.1257Z" fill="#FE8900"/>
<path d="M12.5199 29.6388C12.0012 29.6388 11.5806 29.2105 11.5806 28.6821C11.5806 28.1538 12.0011 27.7253 12.5199 27.7253H36.7105C37.2292 27.7253 37.6498 28.1537 37.6498 28.6821C37.6498 29.2104 37.2293 29.6388 36.7105 29.6388H12.5199Z" fill="#FE8900"/>
<path d="M42.7167 27.7253C43.2354 27.7253 43.656 28.1537 43.656 28.6821C43.656 29.2104 43.2355 29.6388 42.7167 29.6388H40.2314C39.7126 29.6388 39.292 29.2105 39.292 28.6821C39.292 28.1538 39.7125 27.7253 40.2314 27.7253H42.7167Z" fill="#FE8900"/>
<path d="M48.0187 27.7253C48.5374 27.7253 48.958 28.1537 48.958 28.6821C48.958 29.2104 48.5375 29.6388 48.0187 29.6388H45.5334C45.0146 29.6388 44.594 29.2105 44.594 28.6821C44.594 28.1538 45.0145 27.7253 45.5334 27.7253H48.0187Z" fill="#FE8900"/>
<path d="M14.9064 35.2387C15.263 34.8568 15.8562 34.8418 16.231 35.205C16.6059 35.5682 16.6206 36.1724 16.264 36.5541C14.6541 38.2792 15.4053 39.7811 16.1853 41.3408C17.2483 43.4661 18.3507 45.6704 16.0742 48.6335C15.7561 49.0483 15.1679 49.1219 14.7606 48.7979C14.3533 48.4739 14.281 47.8749 14.5992 47.4601C16.1375 45.4578 15.3101 43.8033 14.5122 42.208C13.4261 40.0365 12.3803 37.9454 14.9064 35.2387Z" fill="#FE8900"/>
<path d="M22.2103 35.2387C22.5669 34.8568 23.1601 34.8418 23.5349 35.205C23.9098 35.5682 23.9246 36.1724 23.568 36.5541C21.9581 38.2792 22.7093 39.7811 23.4893 41.3408C24.5522 43.4661 25.6546 45.6704 23.3781 48.6335C23.06 49.0483 22.4719 49.1219 22.0646 48.7979C21.6573 48.4739 21.585 47.8749 21.9031 47.4601C23.4414 45.4578 22.614 43.8033 21.8162 42.208C20.7301 40.0365 19.6842 37.9454 22.2103 35.2387Z" fill="#FE8900"/>
<path d="M29.8734 35.2387C30.23 34.8568 30.8232 34.8418 31.198 35.205C31.5729 35.5682 31.5877 36.1724 31.2311 36.5541C29.6212 38.2792 30.3723 39.7811 31.1524 41.3408C32.2153 43.4661 33.3177 45.6704 31.0412 48.6335C30.7231 49.0483 30.135 49.1219 29.7277 48.7979C29.3204 48.4739 29.2481 47.8749 29.5662 47.4601C31.1045 45.4578 30.2771 43.8033 29.4792 42.208C28.3932 40.0365 27.3473 37.9454 29.8734 35.2387Z" fill="#FE8900"/>
<path d="M41.3218 35.5589C41.3218 35.0306 41.7423 34.6022 42.2611 34.6022C42.7799 34.6022 43.2005 35.0305 43.2005 35.5589V47.6671C43.2005 48.1955 42.78 48.6239 42.2611 48.6239C41.7424 48.6239 41.3218 48.1955 41.3218 47.6671V35.5589Z" fill="#FE8900"/>
<path d="M36.6436 39.4119C36.1958 39.1477 36.043 38.5637 36.3024 38.1076C36.5618 37.6515 37.1352 37.4958 37.583 37.76L47.8784 43.8142C48.3262 44.0784 48.479 44.6624 48.2196 45.1185C47.9602 45.5746 47.3868 45.7302 46.939 45.466L36.6436 39.4119Z" fill="#FE8900"/>
<path d="M37.5794 45.4659C37.1316 45.728 36.5598 45.5707 36.3025 45.1146C36.0451 44.6585 36.1996 44.0761 36.6474 43.814L46.9429 37.76C47.3907 37.4979 47.9624 37.6552 48.2198 38.1113C48.4771 38.5674 48.3227 39.1497 47.8749 39.4118L37.5794 45.4659Z" fill="#FE8900"/>
</g>
<defs>
<clipPath id="clip0">
<rect width="44" height="38" fill="white" transform="translate(8 11)"/>
</clipPath>
</defs>
</svg>
