<svg width="40" height="40" viewBox="0 0 40 40" fill="none" xmlns="http://www.w3.org/2000/svg">
<path d="M19.8084 14.4236V18.2792H17V22.9916H19.8084V37H25.5812V22.9916H29.4539C29.4539 22.9916 29.8189 20.732 29.9944 18.2596H25.6035V15.0396C25.6035 14.5552 26.2332 13.9084 26.8573 13.9084H30V9H25.7233C19.6663 9 19.8084 13.718 19.8084 14.4236Z" fill="white"/>
<path d="M8 4C6.93913 4 5.92172 4.42143 5.17157 5.17157C4.42143 5.92172 4 6.93914 4 8V32C4 33.0609 4.42143 34.0783 5.17157 34.8284C5.92172 35.5786 6.93913 36 8 36H32C33.0609 36 34.0783 35.5786 34.8284 34.8284C35.5786 34.0783 36 33.0609 36 32V8C36 6.93914 35.5786 5.92172 34.8284 5.17157C34.0783 4.42143 33.0609 4 32 4H8ZM8 0H32C34.1217 0 36.1566 0.842855 37.6569 2.34315C39.1572 3.84344 40 5.87827 40 8V32C40 34.1217 39.1572 36.1566 37.6569 37.6569C36.1566 39.1572 34.1217 40 32 40H8C5.87827 40 3.84344 39.1572 2.34315 37.6569C0.842855 36.1566 0 34.1217 0 32V8C0 5.87827 0.842855 3.84344 2.34315 2.34315C3.84344 0.842855 5.87827 0 8 0Z" fill="white"/>
</svg>
