<svg width="60" height="60" viewBox="0 0 60 60" fill="none" xmlns="http://www.w3.org/2000/svg">
<path d="M46.067 35.975L43.3982 34.502C43.8811 34.0267 44.435 33.6223 45.0418 33.302C45.4386 33.0883 45.7309 32.7335 45.8551 32.3148C45.9793 31.8962 45.9255 31.4475 45.7052 31.0667C45.4849 30.6858 45.1161 30.4035 44.679 30.2812C44.2419 30.1589 43.772 30.2065 43.3715 30.4138C42.2128 31.0265 41.1861 31.8434 40.3456 32.8213L33.4295 29L40.344 25.1855C41.1843 26.1635 42.2111 26.9805 43.3699 27.593C43.5686 27.7 43.7874 27.7684 44.0138 27.7941C44.2402 27.8199 44.4697 27.8026 44.6891 27.7431C44.9085 27.6837 45.1133 27.5833 45.2919 27.4478C45.4705 27.3124 45.6192 27.1444 45.7295 26.9537C45.8397 26.763 45.9094 26.5534 45.9344 26.3368C45.9595 26.1203 45.9394 25.9011 45.8753 25.692C45.8112 25.4829 45.7044 25.288 45.5611 25.1186C45.4178 24.9491 45.2408 24.8085 45.0403 24.7048C44.4336 24.3842 43.8797 23.9799 43.3966 23.5048L46.0654 22.0317C46.2695 21.9275 46.4496 21.785 46.595 21.6129C46.7404 21.4408 46.8481 21.2425 46.9116 21.0298C46.9752 20.8172 46.9934 20.5944 46.9651 20.3749C46.9368 20.1554 46.8626 19.9436 46.7469 19.752C46.6312 19.5604 46.4764 19.393 46.2916 19.2598C46.1069 19.1265 45.896 19.0301 45.6714 18.9763C45.4469 18.9224 45.2134 18.9123 44.9846 18.9464C44.7559 18.9806 44.5367 19.0583 44.3401 19.175L41.6713 20.6473C41.4812 20.0097 41.3908 19.3488 41.4029 18.686C41.4079 18.4689 41.368 18.2531 41.2855 18.0508C41.203 17.8484 41.0796 17.6637 40.9222 17.5071C40.7648 17.3504 40.5767 17.225 40.3685 17.138C40.1603 17.051 39.9362 17.0041 39.709 17H39.6768C39.2243 16.9999 38.7899 17.1695 38.467 17.4724C38.144 17.7752 37.9584 18.187 37.95 18.6192C37.9256 19.8837 38.152 21.141 38.6171 22.325L31.7027 26.1418V18.5135C33.0091 18.3072 34.2628 17.8662 35.3973 17.2138C35.7897 16.9879 36.072 16.6224 36.1823 16.1976C36.2925 15.7728 36.2216 15.3236 35.9853 14.9488C35.7489 14.5739 35.3663 14.3041 34.9218 14.1988C34.4772 14.0934 34.0071 14.1611 33.6148 14.387C33.0201 14.7285 32.3757 14.984 31.7027 15.1452V12.65C31.7027 12.2124 31.5207 11.7927 31.1969 11.4833C30.873 11.1738 30.4338 11 29.9758 11C29.5178 11 29.0786 11.1738 28.7547 11.4833C28.4309 11.7927 28.249 12.2124 28.249 12.65V15.1452C27.5759 14.984 26.9316 14.7285 26.3369 14.387C25.9445 14.1611 25.4744 14.0934 25.0298 14.1988C24.5853 14.3041 24.2027 14.5739 23.9663 14.9488C23.73 15.3236 23.6591 15.7728 23.7694 16.1976C23.8796 16.6224 24.162 16.9879 24.5543 17.2138C25.6888 17.8662 26.9425 18.3072 28.249 18.5135V26.1418L21.3345 22.325C21.8003 21.1407 22.0272 19.8828 22.0032 18.6178C21.9948 18.1855 21.8091 17.7737 21.4862 17.4709C21.1633 17.168 20.7288 16.9984 20.2764 16.9985H20.2426C20.0158 17.0025 19.7921 17.0492 19.5842 17.1358C19.3763 17.2224 19.1883 17.3474 19.0309 17.5034C18.8735 17.6595 18.7499 17.8437 18.667 18.0454C18.5841 18.2472 18.5437 18.4626 18.5479 18.6793C18.5606 19.343 18.4704 20.0049 18.2803 20.6435L15.6115 19.175C15.415 19.063 15.1971 18.9894 14.9706 18.9586C14.744 18.9277 14.5133 18.9402 14.2919 18.9952C14.0704 19.0503 13.8626 19.1469 13.6806 19.2794C13.4985 19.4119 13.3458 19.5776 13.2314 19.767C13.117 19.9563 13.0431 20.1655 13.014 20.3824C12.9849 20.5993 13.0012 20.8195 13.062 21.0303C13.1228 21.2411 13.2268 21.4382 13.3681 21.6103C13.5093 21.7823 13.6849 21.9259 13.8847 22.0325L16.5534 23.5055C16.0703 23.9806 15.5165 24.385 14.9098 24.7055C14.7093 24.8092 14.5322 24.9499 14.3889 25.1193C14.2456 25.2888 14.1388 25.4837 14.0748 25.6928C14.0107 25.9019 13.9906 26.121 14.0156 26.3376C14.0406 26.5541 14.1103 26.7638 14.2206 26.9545C14.3309 27.1452 14.4796 27.3131 14.6581 27.4486C14.8367 27.5841 15.0416 27.6844 15.2609 27.7439C15.4803 27.8033 15.7098 27.8206 15.9362 27.7949C16.1627 27.7691 16.3815 27.7008 16.5801 27.5938C17.7388 26.981 18.7655 26.1641 19.606 25.1862L26.5221 29L19.6076 32.8145C18.7671 31.8367 17.7404 31.0198 16.5817 30.407C16.3831 30.3 16.1642 30.2316 15.9378 30.2059C15.7114 30.1801 15.4819 30.1975 15.2625 30.2569C15.0431 30.3163 14.8383 30.4167 14.6597 30.5522C14.4811 30.6876 14.3324 30.8556 14.2221 31.0463C14.1119 31.237 14.0422 31.4466 14.0172 31.6632C13.9921 31.8797 14.0122 32.0989 14.0763 32.308C14.1404 32.5171 14.2472 32.712 14.3905 32.8814C14.5338 33.0509 14.7108 33.1915 14.9113 33.2952C15.518 33.6158 16.0719 34.0201 16.555 34.4953L13.8847 35.975C13.6849 36.0816 13.5093 36.2252 13.3681 36.3972C13.2268 36.5693 13.1228 36.7664 13.062 36.9772C13.0012 37.188 12.9849 37.4082 13.014 37.6251C13.0431 37.842 13.117 38.0512 13.2314 38.2405C13.3458 38.4299 13.4985 38.5956 13.6806 38.7281C13.8626 38.8606 14.0704 38.9572 14.2919 39.0123C14.5133 39.0673 14.744 39.0798 14.9706 39.0489C15.1971 39.0181 15.415 38.9445 15.6115 38.8325L18.2803 37.3603C18.4704 37.9978 18.5608 38.6587 18.5487 39.3215C18.5407 39.7586 18.7146 40.1809 19.0322 40.4956C19.3498 40.8103 19.7852 40.9917 20.2426 41H20.2748C20.7273 41.0001 21.1617 40.8305 21.4846 40.5276C21.8076 40.2248 21.9932 39.813 22.0017 39.3808C22.026 38.1163 21.7996 36.859 21.3345 35.675L28.249 31.8582V39.4865C26.9425 39.6928 25.6888 40.1338 24.5543 40.7863C24.162 41.0121 23.8796 41.3776 23.7694 41.8024C23.6591 42.2272 23.73 42.6764 23.9663 43.0513C24.2027 43.4261 24.5853 43.6959 25.0298 43.8012C25.4744 43.9066 25.9445 43.8389 26.3369 43.613C26.9316 43.2715 27.5759 43.016 28.249 42.8548V45.35C28.249 45.7876 28.4309 46.2073 28.7547 46.5167C29.0786 46.8262 29.5178 47 29.9758 47C30.4338 47 30.873 46.8262 31.1969 46.5167C31.5207 46.2073 31.7027 45.7876 31.7027 45.35V42.8548C32.3757 43.016 33.0201 43.2715 33.6148 43.613C34.0071 43.8389 34.4772 43.9066 34.9218 43.8012C35.3663 43.6959 35.7489 43.4261 35.9853 43.0513C36.2216 42.6764 36.2925 42.2272 36.1823 41.8024C36.072 41.3776 35.7897 41.0121 35.3973 40.7863C34.2628 40.1338 33.0091 39.6928 31.7027 39.4865V31.8582L38.6171 35.675C38.1513 36.8593 37.9244 38.1172 37.9484 39.3822C37.9568 39.8145 38.1425 40.2263 38.4654 40.5292C38.7883 40.832 39.2228 41.0016 39.6752 41.0015H39.709C39.9358 40.9975 40.1595 40.9508 40.3674 40.8642C40.5753 40.7776 40.7634 40.6526 40.9207 40.4966C41.0781 40.3405 41.2017 40.1563 41.2846 39.9546C41.3675 39.7528 41.4079 39.5374 41.4037 39.3207C41.391 38.657 41.4812 37.9951 41.6713 37.3565L44.3401 38.8288C44.5366 38.9493 44.7567 39.0306 44.987 39.0675C45.2173 39.1045 45.4531 39.0965 45.6801 39.0439C45.907 38.9913 46.1205 38.8953 46.3075 38.7616C46.4945 38.6279 46.6512 38.4594 46.7681 38.2662C46.885 38.073 46.9597 37.8592 46.9876 37.6377C47.0155 37.4161 46.9961 37.1915 46.9306 36.9773C46.8651 36.7631 46.7547 36.5638 46.6063 36.3916C46.4578 36.2193 46.2744 36.0776 46.067 35.975Z" fill="#FE8900"/>
<rect x="1.5" y="1.5" width="57" height="57" rx="8.5" stroke="#FE8900" stroke-width="3"/>
</svg>
