<svg width="36" height="36" viewBox="0 0 36 36" fill="none" xmlns="http://www.w3.org/2000/svg">
<circle cx="18" cy="18" r="17" stroke="#FE8900" stroke-width="2"/>
<path d="M17.9999 6.33333C13.4849 6.33333 9.83325 9.985 9.83325 14.5C9.83325 20.625 17.9999 29.6667 17.9999 29.6667C17.9999 29.6667 26.1666 20.625 26.1666 14.5C26.1666 9.985 22.5149 6.33333 17.9999 6.33333ZM12.1666 14.5C12.1666 11.28 14.7799 8.66666 17.9999 8.66666C21.2199 8.66666 23.8333 11.28 23.8333 14.5C23.8333 17.86 20.4733 22.8883 17.9999 26.0267C15.5733 22.9117 12.1666 17.825 12.1666 14.5Z" fill="#FE8900"/>
<path d="M17.9999 17.4167C19.6107 17.4167 20.9166 16.1108 20.9166 14.5C20.9166 12.8892 19.6107 11.5833 17.9999 11.5833C16.3891 11.5833 15.0833 12.8892 15.0833 14.5C15.0833 16.1108 16.3891 17.4167 17.9999 17.4167Z" fill="#FE8900"/>
</svg>
