<svg width="24" height="26" viewBox="0 0 24 26" fill="none" xmlns="http://www.w3.org/2000/svg">
<path d="M7.87373 17.7848C8.86214 19.3119 9.84896 20.6778 10.503 21.5575C10.5982 21.6855 10.6874 21.8043 10.7738 21.9187H8.80017C8.57925 21.9187 8.40019 22.1149 8.40019 22.357C8.40019 22.5991 8.57925 22.7953 8.80017 22.7953H15.2001C15.421 22.7953 15.6001 22.5991 15.6001 22.357C15.6001 22.1149 15.421 21.9187 15.2001 21.9187H13.2265C13.3129 21.8043 13.4021 21.6855 13.4978 21.5575C14.1513 20.6808 15.1378 19.3119 16.1266 17.7848C17.1076 16.3 17.9906 14.7404 18.769 13.1178C19.5858 11.3601 20.0002 9.90092 20.0002 8.78054C20.0029 6.45252 19.1599 4.21907 17.6574 2.57326C17.557 2.45923 17.4083 2.41341 17.2684 2.45342C17.1286 2.49344 17.0193 2.61302 16.9825 2.76625C16.9458 2.91948 16.9874 3.08247 17.0913 3.1926C18.4438 4.67424 19.2026 6.68481 19.2002 8.78049C19.2002 9.7615 18.8154 11.087 18.0562 12.7198C17.2954 14.3047 16.4324 15.8282 15.4738 17.2785C14.4986 18.7859 13.5238 20.1364 12.8778 21.0043C12.663 21.2927 12.4698 21.5478 12.305 21.7635C12.2281 21.8598 12.117 21.915 12.0002 21.915C11.8834 21.915 11.7723 21.8597 11.6954 21.7635C11.5306 21.5479 11.3374 21.2927 11.1226 21.0043C10.4766 20.1369 9.5018 18.7863 8.52661 17.2785C7.56797 15.8282 6.70495 14.3047 5.94421 12.7198C5.18423 11.087 4.80023 9.7615 4.80023 8.78049C4.79999 5.60553 6.53268 2.73831 9.20025 1.49933C10.9927 0.675704 13.0119 0.675704 14.8043 1.49933C14.9359 1.56045 15.0872 1.54006 15.2014 1.4457C15.3155 1.35139 15.3751 1.19749 15.3576 1.042C15.3401 0.886515 15.2483 0.753063 15.1166 0.691936C11.0433 -1.19078 6.34837 0.90059 4.62904 5.36369C4.21209 6.44477 3.99824 7.60685 4.00026 8.78049C4.00026 9.90086 4.41468 11.3601 5.23148 13.12C6.0097 14.7418 6.89278 16.3007 7.87373 17.7848Z" fill="white"/>
<path d="M12 4.82332C12.2209 4.82332 12.4 4.62712 12.4 4.38505C12.4 4.14298 12.2209 3.94678 12 3.94678C10.0917 3.94673 8.44911 5.4238 8.07678 7.47459C7.70445 9.52538 8.70613 11.5787 10.4691 12.379C12.2322 13.1792 14.2656 12.5033 15.3258 10.7647C16.386 9.02619 16.1777 6.70909 14.8284 5.23052C14.7279 5.1166 14.5792 5.07089 14.4394 5.111C14.2995 5.15112 14.1903 5.27079 14.1537 5.424C14.1171 5.57727 14.1588 5.74019 14.2628 5.85026C15.3423 7.03308 15.509 8.88669 14.6609 10.2776C13.8127 11.6685 12.186 12.2092 10.7756 11.5691C9.36519 10.9291 8.56381 9.28639 8.86156 7.64573C9.15931 6.00506 10.4734 4.82338 12 4.82332Z" fill="white"/>
<path d="M23.8494 23.9216L21.3894 19.0998C21.167 18.6714 20.7508 18.4081 20.301 18.4112H17.4502C17.2293 18.4112 17.0502 18.6074 17.0502 18.8495C17.0502 19.0916 17.2293 19.2878 17.4502 19.2878H20.301C20.4611 19.2844 20.6105 19.3759 20.6918 19.5271L23.151 24.3489C23.218 24.4743 23.2166 24.6299 23.1474 24.7539C23.0657 24.9019 22.918 24.9905 22.7602 24.9863H1.24016C1.08257 24.9904 0.935003 24.9017 0.853346 24.7539C0.784159 24.6299 0.782799 24.4743 0.849737 24.3489L3.30895 19.5271C3.39009 19.376 3.53934 19.2845 3.69932 19.2878H6.55013C6.77105 19.2878 6.95012 19.0916 6.95012 18.8495C6.95012 18.6074 6.77105 18.4112 6.55013 18.4112H3.69937C3.24937 18.4079 2.83284 18.6712 2.61018 19.0998L0.150547 23.9216C-0.0545318 24.3185 -0.0497974 24.8055 0.162969 25.1976C0.387126 25.6151 0.798174 25.869 1.24016 25.863H22.7602C23.2021 25.8689 23.613 25.615 23.837 25.1976C24.0498 24.8054 24.0545 24.3185 23.8494 23.9216Z" fill="white"/>
<path d="M19.6004 20.6021H18.0005C17.9215 20.6022 17.8443 20.6278 17.7785 20.6758L16.5785 21.5532C16.3947 21.6877 16.3451 21.9601 16.4677 22.1617C16.5903 22.3633 16.8387 22.4177 17.0225 22.2832L18.1205 21.4795H19.6004C19.8214 21.4795 20.0004 21.2831 20.0004 21.0408C20.0004 20.7984 19.8214 20.6021 19.6004 20.6021Z" fill="white"/>
<path d="M17.2002 23.6711C17.2002 23.9137 17.3793 24.1103 17.6002 24.1103H20.8002C21.0211 24.1103 21.2002 23.9137 21.2002 23.6711C21.2002 23.4285 21.0211 23.2319 20.8002 23.2319H17.6002C17.3793 23.2319 17.2002 23.4285 17.2002 23.6711Z" fill="white"/>
<path d="M7.19999 22.357C7.37634 22.3573 7.53201 22.2308 7.58324 22.0457C7.63448 21.8606 7.56913 21.6606 7.42241 21.5533L6.22241 20.6758C6.1565 20.6278 6.07911 20.6021 5.99998 20.6021H4.39999C4.17906 20.6021 4 20.7985 4 21.0408C4 21.2831 4.17911 21.4795 4.39999 21.4795H5.87998L6.97921 22.2832C7.0446 22.3311 7.12143 22.3568 7.19999 22.357Z" fill="white"/>
<path d="M3.20028 23.2319C2.97936 23.2319 2.80029 23.4285 2.80029 23.6711C2.80029 23.9137 2.97936 24.1103 3.20028 24.1103H6.40031C6.62123 24.1103 6.80029 23.9137 6.80029 23.6711C6.80029 23.4285 6.62123 23.2319 6.40031 23.2319H3.20028Z" fill="white"/>
</svg>
