<svg width="19" height="19" viewBox="0 0 19 19" fill="none" xmlns="http://www.w3.org/2000/svg">
<path d="M17.5 18.1662C18.327 18.1662 19 17.5493 19 16.7912V13.5828C19 12.8248 18.327 12.2078 17.5 12.2078C16.33 12.2078 15.18 12.0392 14.08 11.7064C13.8171 11.6303 13.5365 11.6211 13.2683 11.6797C13.0001 11.7383 12.7542 11.8625 12.557 12.0392L11.117 13.3592C8.62811 12.1206 6.58403 10.2475 5.232 7.96643L6.66 6.64918C7.072 6.29901 7.22 5.76643 7.044 5.25401C6.68174 4.24412 6.49808 3.1876 6.5 2.12451C6.5 1.36643 5.827 0.749512 5 0.749512H1.5C0.673 0.749512 0 1.36643 0 2.12451C0 10.9703 7.85 18.1662 17.5 18.1662ZM1.5 1.66618H5C5.13261 1.66618 5.25979 1.71447 5.35355 1.80042C5.44732 1.88638 5.5 2.00295 5.5 2.12451C5.5 3.2951 5.7 4.4446 6.093 5.53451C6.12187 5.6136 6.12525 5.69865 6.10273 5.77946C6.0802 5.86026 6.03273 5.9334 5.966 5.9901L4.01 7.79226C5.647 10.7513 8.065 12.9678 11.308 14.4812L13.257 12.6937C13.3235 12.6334 13.4067 12.5907 13.4975 12.5704C13.5884 12.55 13.6836 12.5527 13.773 12.5782C14.969 12.9412 16.223 13.1245 17.5 13.1245C17.775 13.1245 18 13.3308 18 13.5828V16.7912C18 17.0433 17.775 17.2495 17.5 17.2495C8.402 17.2495 1 10.4643 1 2.12451C1 2.00295 1.05268 1.88638 1.14645 1.80042C1.24021 1.71447 1.36739 1.66618 1.5 1.66618Z" fill="white"/>
</svg>
