<svg width="36" height="36" viewBox="0 0 36 36" fill="none" xmlns="http://www.w3.org/2000/svg">
<circle cx="18" cy="18" r="17" stroke="#FE8900" stroke-width="2"/>
<path d="M9 11C9 10.4696 9.21071 9.96086 9.58579 9.58579C9.96086 9.21071 10.4696 9 11 9H14.28C14.4898 9.00016 14.6942 9.0663 14.8644 9.18905C15.0345 9.3118 15.1617 9.48496 15.228 9.684L16.726 14.177C16.8019 14.4053 16.7929 14.6534 16.7007 14.8756C16.6085 15.0979 16.4393 15.2795 16.224 15.387L13.967 16.517C15.0733 18.9655 17.0345 20.9267 19.483 22.033L20.613 19.776C20.7205 19.5607 20.9021 19.3915 21.1244 19.2993C21.3466 19.2071 21.5947 19.1981 21.823 19.274L26.316 20.772C26.5152 20.8383 26.6885 20.9657 26.8112 21.136C26.934 21.3064 27.0001 21.511 27 21.721V25C27 25.5304 26.7893 26.0391 26.4142 26.4142C26.0391 26.7893 25.5304 27 25 27H24C15.716 27 9 20.284 9 12V11Z" stroke="#FE8900" stroke-width="2" stroke-linecap="round" stroke-linejoin="round"/>
</svg>
