<svg width="44" height="44" viewBox="0 0 44 44" fill="none" xmlns="http://www.w3.org/2000/svg">
<path d="M38.5 11.0002H32.6883L29.3333 7.3335H18.3333V11.0002H27.72L31.075 14.6668H38.5V36.6668H9.16667V20.1668H5.5V36.6668C5.5 38.6835 7.15 40.3335 9.16667 40.3335H38.5C40.5167 40.3335 42.1667 38.6835 42.1667 36.6668V14.6668C42.1667 12.6502 40.5167 11.0002 38.5 11.0002ZM14.6667 25.6668C14.6667 30.7268 18.7733 34.8335 23.8333 34.8335C28.8933 34.8335 33 30.7268 33 25.6668C33 20.6068 28.8933 16.5002 23.8333 16.5002C18.7733 16.5002 14.6667 20.6068 14.6667 25.6668ZM23.8333 20.1668C26.8583 20.1668 29.3333 22.6418 29.3333 25.6668C29.3333 28.6918 26.8583 31.1668 23.8333 31.1668C20.8083 31.1668 18.3333 28.6918 18.3333 25.6668C18.3333 22.6418 20.8083 20.1668 23.8333 20.1668ZM9.16667 11.0002H14.6667V7.3335H9.16667V1.8335H5.5V7.3335H0V11.0002H5.5V16.5002H9.16667V11.0002Z" fill="#006FBF"/>
</svg>
