<svg width="42" height="42" viewBox="0 0 42 42" fill="none" xmlns="http://www.w3.org/2000/svg">
<g clip-path="url(#clip0)">
<path d="M40.0815 25.8403C40.0844 25.8368 40.0914 25.8333 40.0943 25.8304M30.6255 39.1971C30.1915 37.8331 29.4676 36.6013 28.5251 35.5719L30.6255 39.1971Z" stroke="#F08143" stroke-width="1.23848" stroke-miterlimit="10" stroke-linecap="round" stroke-linejoin="round"/>
<path d="M11.8982 39.1966C14.7056 40.6419 17.8855 41.456 21.2616 41.456C24.6371 41.456 27.8205 40.6413 30.6249 39.1966M17.1369 0.95865C18.4677 0.684332 19.8482 0.542786 21.2621 0.542786C22.6597 0.542786 24.0232 0.681407 25.3405 0.948122L17.1369 0.95865Z" stroke="#F08143" stroke-width="1.23848" stroke-miterlimit="10" stroke-linecap="round" stroke-linejoin="round"/>
<path d="M18.818 32.6772C18.2264 32.8258 17.6588 33.0299 17.1165 33.2844" stroke="#F08143" stroke-width="1.23848" stroke-miterlimit="10" stroke-linecap="round" stroke-linejoin="round"/>
<path d="M11.8982 39.1971C12.3316 37.8343 13.0568 36.6013 13.9992 35.5707" stroke="#F08143" stroke-width="1.23848" stroke-miterlimit="10" stroke-linecap="round" stroke-linejoin="round"/>
<path d="M26.9854 34.2109C26.9854 34.2074 26.9825 34.2074 26.9825 34.2074C26.4905 33.8512 25.9621 33.5412 25.4075 33.2838" stroke="#F08143" stroke-width="1.23848" stroke-miterlimit="10" stroke-linecap="round" stroke-linejoin="round"/>
<path d="M20.2625 32.4181C20.5893 32.3883 20.9231 32.3684 21.2605 32.3684C21.5973 32.3684 21.9277 32.3889 22.2551 32.4181" stroke="#F08143" stroke-width="1.23848" stroke-miterlimit="10" stroke-linecap="round" stroke-linejoin="round"/>
<path d="M40.0943 25.8304C40.0914 25.8339 40.0844 25.8374 40.0814 25.8403L26.9853 34.2108L22.6527 36.978C21.8069 37.5185 20.7174 37.5185 19.8717 36.978L15.542 34.2073" stroke="#F08143" stroke-width="1.23848" stroke-miterlimit="10" stroke-linecap="round" stroke-linejoin="round"/>
<path d="M2.5647 12.9971C2.5647 12.9936 2.5647 12.9936 2.5647 12.9906C3.43274 11.4962 4.92282 9.74209 7.44611 8.53778" stroke="#F08143" stroke-width="1.23848" stroke-miterlimit="10" stroke-linecap="round" stroke-linejoin="round"/>
<path d="M17.1165 33.2838C16.5618 33.5412 16.034 33.8482 15.542 34.2074L2.44001 25.8199C1.09226 24.9554 1.09226 22.7924 1.09871 22.5216C1.19769 21.005 1.59071 19.0526 2.77973 17.423L17.1165 33.2838Z" stroke="#F08143" stroke-width="1.23848" stroke-miterlimit="10" stroke-linecap="round" stroke-linejoin="round"/>
<path d="M39.7405 17.4429C40.9266 19.066 41.3225 21.0114 41.4221 22.5257" stroke="#F08143" stroke-width="1.23848" stroke-miterlimit="10" stroke-linecap="round" stroke-linejoin="round"/>
<path d="M39.8817 17.2663C39.8817 17.2663 39.8817 17.2733 39.8787 17.2733L25.4055 33.2855C24.8649 33.0352 24.2962 32.8305 23.7046 32.679L26.7767 26.1585L28.4712 22.5637L30.2905 18.6981L31.0835 17.013L34.4555 9.85263L35.0629 8.56293C37.6489 9.79648 42.1174 14.0803 39.8817 17.2668V17.2663Z" stroke="#F08143" stroke-width="1.23848" stroke-miterlimit="10" stroke-linecap="round" stroke-linejoin="round"/>
<path d="M20.2648 32.4199C19.7693 32.4696 19.2873 32.555 18.8187 32.6767L7.44687 8.5378L7.23835 8.09269C6.66727 6.88194 7.75086 5.79403 8.35181 5.36822C9.76516 4.36862 12.0706 3.33393 14.9078 3.13916L20.2648 32.4199Z" stroke="#F08143" stroke-width="1.23848" stroke-miterlimit="10" stroke-linecap="round" stroke-linejoin="round"/>
<path d="M27.5652 3.16665L27.5692 3.13682L27.575 3.10406" stroke="#F08143" stroke-width="1.23848" stroke-miterlimit="10" stroke-linecap="round" stroke-linejoin="round"/>
<path d="M35.2973 8.06813C35.2938 8.07164 35.2938 8.07808 35.2903 8.081L35.063 8.56238L34.4556 9.85208L31.0836 17.0124L30.2906 18.6975L28.4713 22.5632L26.7768 26.158L23.7047 32.6784C23.2361 32.5562 22.7506 32.4708 22.2556 32.4176L27.5658 3.16608C30.4188 3.37372 32.7576 4.49205 34.2044 5.42555C34.2044 5.42555 34.2044 5.42555 34.2073 5.42906C34.2905 5.50159 35.8327 6.89014 35.2973 8.06755V8.06813Z" stroke="#F08143" stroke-width="1.23848" stroke-miterlimit="10" stroke-linecap="round" stroke-linejoin="round"/>
<path d="M33.2098 7.4967L29.9426 14.7857" stroke="#F08143" stroke-width="1.23848" stroke-miterlimit="10" stroke-linecap="round" stroke-linejoin="round"/>
<path d="M14.9072 3.13915C14.9072 3.13915 14.6431 1.54588 17.1365 0.959229" stroke="#F08143" stroke-width="1.23848" stroke-miterlimit="10" stroke-linecap="round" stroke-linejoin="round"/>
<path d="M27.5693 3.13797C27.5693 3.13797 27.8335 1.54645 25.3389 0.957458" stroke="#F08143" stroke-width="1.23848" stroke-miterlimit="10" stroke-linecap="round" stroke-linejoin="round"/>
<path d="M2.57529 12.9684C2.07977 13.8821 1.44543 15.7994 2.71001 17.3289" stroke="#F08143" stroke-width="1.23848" stroke-miterlimit="10" stroke-linecap="round" stroke-linejoin="round"/>
<path d="M40.0808 25.8403C40.0837 25.8368 40.0908 25.8333 40.0937 25.8304C41.517 24.9033 41.4215 22.5257 41.4215 22.5257" stroke="#F08143" stroke-width="1.23848" stroke-miterlimit="10" stroke-linecap="round" stroke-linejoin="round"/>
<path d="M1.09863 22.5216C1.09863 22.5058 1.09863 22.4953 1.09863 22.4953" stroke="#F08143" stroke-width="1.23848" stroke-miterlimit="10" stroke-linecap="round" stroke-linejoin="round"/>
<path d="M25.0091 3.73755L23.3738 14.5167" stroke="#F08143" stroke-width="1.23848" stroke-miterlimit="10" stroke-linecap="round" stroke-linejoin="round"/>
<path d="M38.3524 16.0836L35.9697 18.9356" stroke="#F08143" stroke-width="1.23848" stroke-miterlimit="10" stroke-linecap="round" stroke-linejoin="round"/>
<path d="M38.9463 24.3044L36.9766 25.6157" stroke="#F08143" stroke-width="1.23848" stroke-miterlimit="10" stroke-linecap="round" stroke-linejoin="round"/>
</g>
<defs>
<clipPath id="clip0">
<rect width="41.4129" height="42" fill="white" transform="translate(0.553955)"/>
</clipPath>
</defs>
</svg>
