<svg width="60" height="60" viewBox="0 0 60 60" fill="none" xmlns="http://www.w3.org/2000/svg">
<rect x="1.5" y="1.5" width="57" height="57" rx="8.5" stroke="#FE8900" stroke-width="3"/>
<g clip-path="url(#clip0)">
<path d="M40.5769 8.00059C40.2323 8.03764 39.9103 8.18997 39.6631 8.4329L30 18.0975L24.9523 13.0467C24.8068 12.9014 24.6342 12.7861 24.4442 12.7075C24.2541 12.6288 24.0505 12.5884 23.8448 12.5885C23.6392 12.5885 23.4356 12.6291 23.2456 12.7079C23.0556 12.7866 22.8831 12.902 22.7377 13.0475C22.4441 13.3413 22.2793 13.7397 22.2794 14.155C22.2795 14.3606 22.3201 14.5642 22.3988 14.7542C22.4776 14.9442 22.593 15.1168 22.7385 15.2621L27.7877 20.3083H14.6154C13.3913 20.3083 12.2174 20.7945 11.3518 21.6601C10.4863 22.5256 10 23.6996 10 24.9237V43.3852C10 44.6093 10.4863 45.7832 11.3518 46.6488C12.2174 47.5143 13.3913 48.0006 14.6154 48.0006H45.3846C46.6087 48.0006 47.7826 47.5143 48.6482 46.6488C49.5137 45.7832 50 44.6093 50 43.3852V24.9237C50 23.6996 49.5137 22.5256 48.6482 21.6601C47.7826 20.7945 46.6087 20.3083 45.3846 20.3083H32.2108L41.8754 10.6452C42.1175 10.4201 42.2807 10.123 42.3407 9.79798C42.4008 9.47291 42.3546 9.13714 42.2089 8.8404C42.0632 8.54367 41.8258 8.30175 41.5318 8.15049C41.2379 7.99923 40.9031 7.94667 40.5769 8.00059ZM26.1538 23.3852C37.6077 23.3852 39.2308 23.4175 39.2308 34.1544C39.2308 44.8929 37.4954 44.9237 26.1538 44.9237C14.76 44.9237 13.0769 44.8098 13.0769 34.1544C13.0769 23.5021 14.76 23.3852 26.1538 23.3852ZM44.6154 27.9052C45.9477 27.9052 47.02 28.976 47.02 30.3083C47.02 31.6406 45.9477 32.7129 44.6154 32.7129C44.2994 32.7137 43.9863 32.6521 43.6942 32.5315C43.4021 32.411 43.1367 32.2339 42.9133 32.0104C42.6898 31.787 42.5127 31.5216 42.3922 31.2294C42.2716 30.9373 42.21 30.6243 42.2108 30.3083C42.2108 28.976 43.2831 27.9037 44.6154 27.9037V27.9052ZM44.6154 34.059C45.9477 34.059 47.02 35.1298 47.02 36.4621C47.02 37.7944 45.9477 38.8667 44.6154 38.8667C44.2994 38.8676 43.9863 38.8059 43.6942 38.6854C43.4021 38.5648 43.1367 38.3877 42.9133 38.1643C42.6898 37.9408 42.5127 37.6754 42.3922 37.3833C42.2716 37.0912 42.21 36.7781 42.2108 36.4621C42.2108 35.1298 43.2831 34.0575 44.6154 34.0575V34.059Z" fill="#FE8900"/>
</g>
<defs>
<clipPath id="clip0">
<rect width="40" height="40" fill="white" transform="translate(10 8)"/>
</clipPath>
</defs>
</svg>
