<svg width="60" height="60" viewBox="0 0 60 60" fill="none" xmlns="http://www.w3.org/2000/svg">
<path d="M31.6353 34.9722L29.4924 37.1616L31.6314 41.5306L33.7359 39.2609L31.6372 34.9702L31.6353 34.9722Z" fill="#FE8900"/>
<path d="M32.998 44.3271L35.001 48.422L37.1055 46.1522L35.1025 42.0574L32.998 44.3271Z" fill="#FE8900"/>
<path d="M49.4353 26.6002L47.3577 28.8406L51.3482 30.7911L53.4258 28.5507L49.4353 26.6002Z" fill="#FE8900"/>
<path d="M40.7817 25.6269L44.6323 27.5089L46.71 25.2686L42.938 23.4258L40.7817 25.6289V25.6269Z" fill="#FE8900"/>
<path d="M37.6519 39.3079L40.2144 42.7996L42.2193 40.6356L39.6567 37.1439L37.6519 39.3079Z" fill="#FE8900"/>
<path d="M37.9086 34.7606L35.3096 31.218L33.2568 33.3154L35.9038 36.9226L37.9086 34.7587V34.7606Z" fill="#FE8900"/>
<path d="M37.0193 29.4692L40.316 32.1638L42.2997 30.0234L39.0644 27.3796L37.0193 29.4692Z" fill="#FE8900"/>
<path d="M42.5679 34.0047L45.8665 36.7013L47.8502 34.5609L44.5516 31.8643L42.5679 34.0047Z" fill="#FE8900"/>
<path d="M41.328 17.2433L38.9705 19.6521L36.749 17.3824C34.934 15.5278 32.427 14.3822 29.6593 14.3822C26.8916 14.3822 24.3827 15.5298 22.5695 17.3824L22.4795 17.4764C21.4305 16.7205 20.1985 16.2737 18.9179 16.1848C17.6373 16.0958 16.3574 16.3682 15.218 16.9721C14.0786 17.576 13.1236 18.4882 12.4572 19.6091C11.7908 20.73 11.4388 22.0164 11.4395 23.3279V45.4512H14.3145V23.3279C14.3145 22.5573 14.5211 21.8014 14.9117 21.1423C15.3024 20.4831 15.8622 19.9458 16.5305 19.5887C17.1988 19.2315 17.95 19.0682 18.7028 19.1163C19.4555 19.1644 20.1809 19.4222 20.8005 19.8616L20.787 19.8518C20.0265 21.3215 19.6316 22.9599 19.637 24.6223C19.637 27.4521 20.7583 30.0136 22.5715 31.8721L24.7929 34.1418L22.6443 36.3371L24.4421 38.174L43.1296 19.0802L41.328 17.2433ZM26.6214 31.8584L24.6012 29.7943C23.2597 28.4236 22.5061 26.5646 22.5061 24.6262C22.5061 22.6879 23.2597 20.8289 24.6012 19.4582C25.9427 18.0876 27.7621 17.3175 29.6593 17.3175C31.5564 17.3175 33.3759 18.0876 34.7174 19.4582L36.7375 21.5223L26.6214 31.8584Z" fill="#FE8900"/>
<rect x="1.5" y="1.5" width="57" height="57" rx="8.5" stroke="#FE8900" stroke-width="3"/>
</svg>
