<svg width="60" height="60" viewBox="0 0 60 60" fill="none" xmlns="http://www.w3.org/2000/svg">
<path d="M16.1318 34.1729L16.4873 36.6104L17.0078 34.4141L20.6641 21.5156H22.7207L26.2881 34.4141L26.7959 36.6484L27.1895 34.1602L30.0586 21.5156H32.5088L28.0273 40H25.8057L21.9971 26.5303L21.7051 25.1211L21.4131 26.5303L17.4648 40H15.2432L10.7744 21.5156H13.2119L16.1318 34.1729ZM48.8223 34.1348C48.5938 36.0898 47.8701 37.6006 46.6514 38.667C45.4411 39.7249 43.8288 40.2539 41.8145 40.2539C39.6309 40.2539 37.8789 39.471 36.5586 37.9053C35.2467 36.3395 34.5908 34.2448 34.5908 31.6211V29.8438C34.5908 28.1257 34.8955 26.6149 35.5049 25.3115C36.1227 24.0081 36.9945 23.0094 38.1201 22.3154C39.2458 21.613 40.5492 21.2617 42.0303 21.2617C43.9938 21.2617 45.568 21.8118 46.7529 22.9121C47.9378 24.0039 48.6276 25.5189 48.8223 27.457H46.3721C46.1605 25.9844 45.6992 24.918 44.9883 24.2578C44.2858 23.5977 43.2998 23.2676 42.0303 23.2676C40.473 23.2676 39.25 23.8431 38.3613 24.9941C37.4811 26.1452 37.041 27.7829 37.041 29.9072V31.6973C37.041 33.7031 37.46 35.2985 38.2979 36.4834C39.1357 37.6683 40.3079 38.2607 41.8145 38.2607C43.1686 38.2607 44.2054 37.9561 44.9248 37.3467C45.6527 36.7288 46.1351 35.6582 46.3721 34.1348H48.8223Z" fill="#FE8900"/>
<rect x="1.5" y="1.5" width="57" height="57" rx="8.5" stroke="#FE8900" stroke-width="3"/>
</svg>
