<svg width="60" height="60" viewBox="0 0 60 60" fill="none" xmlns="http://www.w3.org/2000/svg">
<path d="M49.6898 25.9658C38.8935 15.7239 22.1022 15.7276 11.3101 25.9658C10.9043 26.3508 10.8964 27.0026 11.2888 27.402L13.3753 29.5251C13.7494 29.9064 14.3515 29.9145 14.7403 29.5489C23.6323 21.1939 37.3664 21.192 46.2602 29.5489C46.649 29.9145 47.2511 29.9058 47.6252 29.5251L49.7117 27.402C50.1035 27.0026 50.0956 26.3508 49.6898 25.9658ZM30.4999 38.2858C28.3458 38.2858 26.5999 40.0764 26.5999 42.2858C26.5999 44.4951 28.3458 46.2858 30.4999 46.2858C32.6541 46.2858 34.3999 44.4951 34.3999 42.2858C34.3999 40.0764 32.6541 38.2858 30.4999 38.2858ZM42.8501 33.0614C35.8265 26.6908 25.1655 26.6976 18.1497 33.0614C17.7293 33.4426 17.7159 34.1045 18.115 34.5083L20.2137 36.6326C20.5793 37.0026 21.168 37.0276 21.5574 36.6826C26.6731 32.147 34.3384 32.157 39.4419 36.6826C39.8313 37.0276 40.42 37.0033 40.7856 36.6326L42.8843 34.5083C43.284 34.1045 43.27 33.442 42.8501 33.0614Z" fill="#FE8900"/>
<rect x="1.5" y="1.5" width="57" height="57" rx="8.5" stroke="#FE8900" stroke-width="3"/>
</svg>
